# File created by Blade
# Date/Time:  Tue Apr 07 21:36:59 2015
# Frame Rate: 120.000 fps
#------------------------------------------------------
:FULLY-SPECIFIED
:DEGREES
250
root 8.325332 32.580426 11.642521 -6.266671 -88.838714 23.463973
Spine -2.127876 -8.715547 -1.884653
Head 15.327125 -4.447331 -0.540047
LeftShoulder -8.676628 41.561068 12.185360
LeftArm 62.444498 18.864659 -69.242690
LeftForeArm -7.637990 -0.000000 9.147498
LeftHand 9.402762 -0.000000 -3.162752
LeftHandThumb1 -26.253704 0.000000 33.147579
RightShoulder -0.654525 -5.520663 -16.129935
RightArm 18.183007 -16.984109 88.697816
RightForeArm 0.353434 -0.000000 18.123096
RightHand 6.953748 -0.000000 5.051204
RightHandThumb1 -24.326973 -0.000000 -32.862282
LeftUpLeg -14.247353 -2.521913 2.334021
LeftLeg 7.551943 -0.000000 -0.000000
LeftFoot -16.789062 16.950304 -19.717652
LeftToeBase -6.755532 -0.000000 0.000000
RightUpLeg -29.928748 4.720362 -4.320940
RightLeg 8.246736 -0.000000 -0.000000
RightFoot -0.086816 -10.163981 8.612610
RightToeBase -2.590800 -0.000000 0.000000
251
root 8.264589 32.575031 11.560174 -3.904030 -88.561163 21.170213
Spine -2.150654 -8.721607 -1.753843
Head 14.959546 -4.556003 -0.698501
LeftShoulder -8.639501 41.380959 12.113530
LeftArm 62.522014 18.775410 -69.152387
LeftForeArm -7.560581 0.000000 9.061161
LeftHand 9.476867 -0.000000 -2.902289
LeftHandThumb1 -26.253704 0.000000 33.147579
RightShoulder -0.642219 -5.519130 -16.136044
RightArm 18.236072 -18.041926 88.098497
RightForeArm 1.453688 -0.000000 18.309289
RightHand 6.481122 0.000000 5.196536
RightHandThumb1 -24.326973 -0.000000 -32.862282
LeftUpLeg -14.875994 -3.000823 2.529305
LeftLeg 8.835860 -0.000000 -0.000000
LeftFoot -17.247269 17.109108 -19.974596
LeftToeBase -6.931675 -0.000000 0.000000
RightUpLeg -29.938347 4.416031 -4.103690
RightLeg 8.437498 -0.000000 -0.000000
RightFoot -0.365204 -10.039967 8.282345
RightToeBase -2.627942 -0.000000 0.000000
252
root 8.206052 32.572041 11.476958 0.887029 -88.301049 16.468811
Spine -2.200434 -8.711406 -1.486800
Head 14.593009 -4.646460 -0.915060
LeftShoulder -8.605880 41.168384 11.989601
LeftArm 62.578856 18.670047 -69.074446
LeftForeArm -7.425582 -0.000000 9.005613
LeftHand 9.566516 -0.000000 -2.523976
LeftHandThumb1 -26.253704 0.000000 33.147579
RightShoulder -0.578541 -5.478483 -16.211971
RightArm 18.283006 -18.539860 87.794413
RightForeArm 2.145963 -0.000000 18.201827
RightHand 6.481478 0.000000 4.855434
RightHandThumb1 -24.326973 -0.000000 -32.862282
LeftUpLeg -15.649807 -3.385542 2.806092
LeftLeg 10.346415 -0.000000 -0.000000
LeftFoot -17.714714 17.207389 -20.232655
LeftToeBase -7.125372 -0.000000 0.000000
RightUpLeg -29.953384 4.230220 -3.847780
RightLeg 8.569157 -0.000000 -0.000000
RightFoot -0.589820 -10.016493 8.109355
RightToeBase -2.629639 -0.000000 0.000000
253
root 8.150087 32.570875 11.396521 5.502936 -88.066737 11.925625
Spine -2.210127 -8.658499 -1.161457
Head 14.180549 -4.709256 -1.162385
LeftShoulder -8.572784 40.941883 11.845357
LeftArm 62.586339 18.515669 -69.109519
LeftForeArm -7.256183 -0.000000 9.037716
LeftHand 9.614625 -0.000000 -2.329888
LeftHandThumb1 -26.253704 0.000000 33.147579
RightShoulder -0.482460 -5.384315 -16.369435
RightArm 18.306437 -18.578213 87.747608
RightForeArm 2.349831 -0.000000 17.943394
RightHand 6.616153 0.000000 4.900066
RightHandThumb1 -24.326973 -0.000000 -32.862282
LeftUpLeg -16.481854 -3.806327 3.128347
LeftLeg 11.984357 -0.000000 -0.000000
LeftFoot -18.164173 17.381684 -20.540509
LeftToeBase -7.414180 -0.000000 0.000000
RightUpLeg -29.948902 4.112216 -3.584292
RightLeg 8.664986 -0.000000 -0.000000
RightFoot -0.794009 -10.026613 8.079757
RightToeBase -2.533247 -0.000000 0.000000
